<mxfile host="app.diagrams.net" modified="2024-06-14T07:00:09.957Z" agent="Mozilla/5.0 (Windows NT 10.0; Win64; x64) AppleWebKit/537.36 (KHTML, like Gecko) Chrome/125.0.0.0 Safari/537.36 Edg/125.0.0.0" etag="_mneJKBMceQfyE-qVqDQ" version="24.5.4" type="device">
  <diagram id="R2lEEEUBdFMjLlhIrx00" name="Page-1">
    <mxGraphModel dx="786" dy="433" grid="1" gridSize="10" guides="1" tooltips="1" connect="1" arrows="1" fold="0" page="1" pageScale="1" pageWidth="850" pageHeight="1100" math="0" shadow="0" extFonts="Permanent Marker^https://fonts.googleapis.com/css?family=Permanent+Marker">
      <root>
        <mxCell id="0" />
        <mxCell id="1" parent="0" />
        <mxCell id="FzxFN5KaWCAqjOAhKHtK-2" value="&lt;div&gt;&lt;br&gt;&lt;/div&gt;Cliente" style="rounded=0;whiteSpace=wrap;html=1;" parent="1" vertex="1">
          <mxGeometry x="190" y="250" width="120" height="30" as="geometry" />
        </mxCell>
        <mxCell id="FzxFN5KaWCAqjOAhKHtK-4" value="TelÃ©fono" style="ellipse;whiteSpace=wrap;html=1;" parent="1" vertex="1">
          <mxGeometry x="130" y="145" width="130" height="50" as="geometry" />
        </mxCell>
        <mxCell id="FzxFN5KaWCAqjOAhKHtK-5" value="Nombre" style="ellipse;whiteSpace=wrap;html=1;" parent="1" vertex="1">
          <mxGeometry x="40" y="190" width="130" height="60" as="geometry" />
        </mxCell>
        <mxCell id="FzxFN5KaWCAqjOAhKHtK-6" value="idCliente" style="ellipse;whiteSpace=wrap;" parent="1" vertex="1">
          <mxGeometry x="30" y="260" width="120" height="60" as="geometry" />
        </mxCell>
        <mxCell id="FzxFN5KaWCAqjOAhKHtK-7" value="" style="endArrow=none;html=1;rounded=0;exitX=1;exitY=0.5;exitDx=0;exitDy=0;entryX=0;entryY=0.5;entryDx=0;entryDy=0;" parent="1" source="FzxFN5KaWCAqjOAhKHtK-2" target="FzxFN5KaWCAqjOAhKHtK-8" edge="1">
          <mxGeometry width="50" height="50" relative="1" as="geometry">
            <mxPoint x="420" y="280" as="sourcePoint" />
            <mxPoint x="480" y="260" as="targetPoint" />
          </mxGeometry>
        </mxCell>
        <mxCell id="dLvith_7uc--NiGQk4SE-22" value="1,N" style="edgeLabel;html=1;align=center;verticalAlign=middle;resizable=0;points=[];" vertex="1" connectable="0" parent="FzxFN5KaWCAqjOAhKHtK-7">
          <mxGeometry x="-0.2" y="1" relative="1" as="geometry">
            <mxPoint x="3" y="-14" as="offset" />
          </mxGeometry>
        </mxCell>
        <mxCell id="FzxFN5KaWCAqjOAhKHtK-8" value="Pide" style="rhombus;whiteSpace=wrap;html=1;" parent="1" vertex="1">
          <mxGeometry x="360" y="225" width="110" height="80" as="geometry" />
        </mxCell>
        <mxCell id="FzxFN5KaWCAqjOAhKHtK-9" value="Servicios" style="rounded=0;whiteSpace=wrap;html=1;" parent="1" vertex="1">
          <mxGeometry x="510" y="245" width="110" height="35" as="geometry" />
        </mxCell>
        <mxCell id="FzxFN5KaWCAqjOAhKHtK-11" value="" style="endArrow=none;html=1;rounded=0;exitX=0.25;exitY=1;exitDx=0;exitDy=0;entryX=1;entryY=0.5;entryDx=0;entryDy=0;" parent="1" source="FzxFN5KaWCAqjOAhKHtK-2" target="FzxFN5KaWCAqjOAhKHtK-6" edge="1">
          <mxGeometry width="50" height="50" relative="1" as="geometry">
            <mxPoint x="230" y="320" as="sourcePoint" />
            <mxPoint x="160" y="340" as="targetPoint" />
          </mxGeometry>
        </mxCell>
        <mxCell id="FzxFN5KaWCAqjOAhKHtK-14" value="" style="endArrow=none;html=1;rounded=0;exitX=0;exitY=0.25;exitDx=0;exitDy=0;entryX=1;entryY=1;entryDx=0;entryDy=0;" parent="1" source="FzxFN5KaWCAqjOAhKHtK-2" target="FzxFN5KaWCAqjOAhKHtK-5" edge="1">
          <mxGeometry width="50" height="50" relative="1" as="geometry">
            <mxPoint x="250" y="290" as="sourcePoint" />
            <mxPoint x="160" y="300" as="targetPoint" />
            <Array as="points">
              <mxPoint x="180" y="241" />
            </Array>
          </mxGeometry>
        </mxCell>
        <mxCell id="FzxFN5KaWCAqjOAhKHtK-16" value="" style="endArrow=none;html=1;rounded=0;exitX=0.75;exitY=0;exitDx=0;exitDy=0;" parent="1" source="FzxFN5KaWCAqjOAhKHtK-2" target="FzxFN5KaWCAqjOAhKHtK-4" edge="1">
          <mxGeometry width="50" height="50" relative="1" as="geometry">
            <mxPoint x="299.5" y="220" as="sourcePoint" />
            <mxPoint x="240.5" y="203" as="targetPoint" />
            <Array as="points" />
          </mxGeometry>
        </mxCell>
        <mxCell id="FzxFN5KaWCAqjOAhKHtK-17" value="idServicio" style="ellipse;whiteSpace=wrap;html=1;" parent="1" vertex="1">
          <mxGeometry x="500" y="160" width="100" height="35" as="geometry" />
        </mxCell>
        <mxCell id="FzxFN5KaWCAqjOAhKHtK-18" value="idcliente" style="ellipse;whiteSpace=wrap;html=1;" parent="1" vertex="1">
          <mxGeometry x="640" y="160" width="100" height="35" as="geometry" />
        </mxCell>
        <mxCell id="FzxFN5KaWCAqjOAhKHtK-20" value="Nombre_Cliente" style="ellipse;whiteSpace=wrap;html=1;" parent="1" vertex="1">
          <mxGeometry x="700" y="202.5" width="100" height="35" as="geometry" />
        </mxCell>
        <mxCell id="FzxFN5KaWCAqjOAhKHtK-22" value="Servicios" style="ellipse;whiteSpace=wrap;html=1;" parent="1" vertex="1">
          <mxGeometry x="690" y="260" width="100" height="35" as="geometry" />
        </mxCell>
        <mxCell id="FzxFN5KaWCAqjOAhKHtK-23" value="" style="endArrow=none;html=1;rounded=0;exitX=1;exitY=0.5;exitDx=0;exitDy=0;entryX=0;entryY=0.5;entryDx=0;entryDy=0;" parent="1" source="FzxFN5KaWCAqjOAhKHtK-8" target="FzxFN5KaWCAqjOAhKHtK-9" edge="1">
          <mxGeometry width="50" height="50" relative="1" as="geometry">
            <mxPoint x="470" y="330" as="sourcePoint" />
            <mxPoint x="520" y="280" as="targetPoint" />
          </mxGeometry>
        </mxCell>
        <mxCell id="dLvith_7uc--NiGQk4SE-23" value="1,N" style="edgeLabel;html=1;align=center;verticalAlign=middle;resizable=0;points=[];" vertex="1" connectable="0" parent="FzxFN5KaWCAqjOAhKHtK-23">
          <mxGeometry x="-0.0568" y="-2" relative="1" as="geometry">
            <mxPoint y="-21" as="offset" />
          </mxGeometry>
        </mxCell>
        <mxCell id="FzxFN5KaWCAqjOAhKHtK-24" value="" style="endArrow=none;html=1;rounded=0;exitX=0.5;exitY=1;exitDx=0;exitDy=0;entryX=0.391;entryY=-0.143;entryDx=0;entryDy=0;entryPerimeter=0;" parent="1" source="FzxFN5KaWCAqjOAhKHtK-17" target="FzxFN5KaWCAqjOAhKHtK-9" edge="1">
          <mxGeometry width="50" height="50" relative="1" as="geometry">
            <mxPoint x="470" y="330" as="sourcePoint" />
            <mxPoint x="520" y="280" as="targetPoint" />
          </mxGeometry>
        </mxCell>
        <mxCell id="FzxFN5KaWCAqjOAhKHtK-26" value="" style="endArrow=none;html=1;rounded=0;exitX=0;exitY=1;exitDx=0;exitDy=0;entryX=0.75;entryY=0;entryDx=0;entryDy=0;" parent="1" source="FzxFN5KaWCAqjOAhKHtK-18" target="FzxFN5KaWCAqjOAhKHtK-9" edge="1">
          <mxGeometry width="50" height="50" relative="1" as="geometry">
            <mxPoint x="560" y="205" as="sourcePoint" />
            <mxPoint x="563" y="250" as="targetPoint" />
          </mxGeometry>
        </mxCell>
        <mxCell id="FzxFN5KaWCAqjOAhKHtK-28" value="" style="endArrow=none;html=1;rounded=0;exitX=-0.02;exitY=0.329;exitDx=0;exitDy=0;entryX=1;entryY=0.25;entryDx=0;entryDy=0;exitPerimeter=0;" parent="1" source="FzxFN5KaWCAqjOAhKHtK-20" target="FzxFN5KaWCAqjOAhKHtK-9" edge="1">
          <mxGeometry width="50" height="50" relative="1" as="geometry">
            <mxPoint x="664" y="200" as="sourcePoint" />
            <mxPoint x="603" y="255" as="targetPoint" />
          </mxGeometry>
        </mxCell>
        <mxCell id="FzxFN5KaWCAqjOAhKHtK-30" value="" style="endArrow=none;html=1;rounded=0;exitX=0;exitY=0.5;exitDx=0;exitDy=0;entryX=1;entryY=0.5;entryDx=0;entryDy=0;" parent="1" source="FzxFN5KaWCAqjOAhKHtK-22" target="FzxFN5KaWCAqjOAhKHtK-9" edge="1">
          <mxGeometry width="50" height="50" relative="1" as="geometry">
            <mxPoint x="708" y="224" as="sourcePoint" />
            <mxPoint x="630" y="264" as="targetPoint" />
          </mxGeometry>
        </mxCell>
        <mxCell id="FzxFN5KaWCAqjOAhKHtK-31" value="Productos" style="rounded=0;whiteSpace=wrap;html=1;" parent="1" vertex="1">
          <mxGeometry x="505" y="470" width="120" height="30" as="geometry" />
        </mxCell>
        <mxCell id="FzxFN5KaWCAqjOAhKHtK-32" value="Necesita" style="rhombus;whiteSpace=wrap;html=1;" parent="1" vertex="1">
          <mxGeometry x="520" y="330" width="90" height="90" as="geometry" />
        </mxCell>
        <mxCell id="FzxFN5KaWCAqjOAhKHtK-33" value="" style="endArrow=none;html=1;rounded=0;exitX=0.5;exitY=1;exitDx=0;exitDy=0;" parent="1" source="FzxFN5KaWCAqjOAhKHtK-9" edge="1">
          <mxGeometry width="50" height="50" relative="1" as="geometry">
            <mxPoint x="510" y="450" as="sourcePoint" />
            <mxPoint x="565" y="330" as="targetPoint" />
          </mxGeometry>
        </mxCell>
        <mxCell id="dLvith_7uc--NiGQk4SE-24" value="1,N&lt;div&gt;&lt;br&gt;&lt;/div&gt;" style="edgeLabel;html=1;align=center;verticalAlign=middle;resizable=0;points=[];" vertex="1" connectable="0" parent="FzxFN5KaWCAqjOAhKHtK-33">
          <mxGeometry x="0.08" relative="1" as="geometry">
            <mxPoint x="10" y="3" as="offset" />
          </mxGeometry>
        </mxCell>
        <mxCell id="FzxFN5KaWCAqjOAhKHtK-34" value="" style="endArrow=none;html=1;rounded=0;exitX=0.5;exitY=0;exitDx=0;exitDy=0;entryX=0.5;entryY=1;entryDx=0;entryDy=0;" parent="1" source="FzxFN5KaWCAqjOAhKHtK-31" target="FzxFN5KaWCAqjOAhKHtK-32" edge="1">
          <mxGeometry width="50" height="50" relative="1" as="geometry">
            <mxPoint x="510" y="450" as="sourcePoint" />
            <mxPoint x="560" y="400" as="targetPoint" />
          </mxGeometry>
        </mxCell>
        <mxCell id="dLvith_7uc--NiGQk4SE-25" value="1,N&lt;div&gt;&lt;br&gt;&lt;/div&gt;" style="edgeLabel;html=1;align=center;verticalAlign=middle;resizable=0;points=[];" vertex="1" connectable="0" parent="FzxFN5KaWCAqjOAhKHtK-34">
          <mxGeometry x="0.04" y="-1" relative="1" as="geometry">
            <mxPoint x="9" as="offset" />
          </mxGeometry>
        </mxCell>
        <mxCell id="FzxFN5KaWCAqjOAhKHtK-35" value="Protector tÃ©rmico" style="ellipse;whiteSpace=wrap;html=1;" parent="1" vertex="1">
          <mxGeometry x="710" y="525" width="110" height="50" as="geometry" />
        </mxCell>
        <mxCell id="FzxFN5KaWCAqjOAhKHtK-36" value="Brillo&amp;nbsp;" style="ellipse;whiteSpace=wrap;html=1;" parent="1" vertex="1">
          <mxGeometry x="680" y="570" width="100" height="40" as="geometry" />
        </mxCell>
        <mxCell id="FzxFN5KaWCAqjOAhKHtK-37" value="Decolorante" style="ellipse;whiteSpace=wrap;html=1;" parent="1" vertex="1">
          <mxGeometry x="600" y="590" width="100" height="30" as="geometry" />
        </mxCell>
        <mxCell id="FzxFN5KaWCAqjOAhKHtK-38" value="Champu" style="ellipse;whiteSpace=wrap;html=1;" parent="1" vertex="1">
          <mxGeometry x="540" y="590" width="70" height="30" as="geometry" />
        </mxCell>
        <mxCell id="FzxFN5KaWCAqjOAhKHtK-39" value="Crema" style="ellipse;whiteSpace=wrap;html=1;" parent="1" vertex="1">
          <mxGeometry x="460" y="580" width="80" height="30" as="geometry" />
        </mxCell>
        <mxCell id="FzxFN5KaWCAqjOAhKHtK-40" value="Oxidante" style="ellipse;whiteSpace=wrap;html=1;" parent="1" vertex="1">
          <mxGeometry x="385" y="545" width="80" height="45" as="geometry" />
        </mxCell>
        <mxCell id="FzxFN5KaWCAqjOAhKHtK-41" value="Tintura" style="ellipse;whiteSpace=wrap;html=1;" parent="1" vertex="1">
          <mxGeometry x="332.5" y="510" width="65" height="50" as="geometry" />
        </mxCell>
        <mxCell id="FzxFN5KaWCAqjOAhKHtK-42" value="idProductos" style="ellipse;whiteSpace=wrap;html=1;" parent="1" vertex="1">
          <mxGeometry x="300" y="400" width="130" height="50" as="geometry" />
        </mxCell>
        <mxCell id="dLvith_7uc--NiGQk4SE-1" value="Horquillas" style="ellipse;whiteSpace=wrap;html=1;" vertex="1" parent="1">
          <mxGeometry x="730" y="440" width="100" height="30" as="geometry" />
        </mxCell>
        <mxCell id="dLvith_7uc--NiGQk4SE-3" value="Aceite" style="ellipse;whiteSpace=wrap;html=1;" vertex="1" parent="1">
          <mxGeometry x="720" y="400" width="100" height="30" as="geometry" />
        </mxCell>
        <mxCell id="dLvith_7uc--NiGQk4SE-4" value="Reparador" style="ellipse;whiteSpace=wrap;html=1;" vertex="1" parent="1">
          <mxGeometry x="405" y="385" width="100" height="30" as="geometry" />
        </mxCell>
        <mxCell id="dLvith_7uc--NiGQk4SE-5" value="idServicios" style="ellipse;whiteSpace=wrap;html=1;" vertex="1" parent="1">
          <mxGeometry x="610" y="380" width="110" height="40" as="geometry" />
        </mxCell>
        <mxCell id="dLvith_7uc--NiGQk4SE-6" value="idProveedor" style="ellipse;whiteSpace=wrap;html=1;" vertex="1" parent="1">
          <mxGeometry x="730" y="470" width="100" height="50" as="geometry" />
        </mxCell>
        <mxCell id="dLvith_7uc--NiGQk4SE-7" value="" style="endArrow=none;html=1;rounded=0;exitX=1;exitY=1;exitDx=0;exitDy=0;entryX=0;entryY=0.5;entryDx=0;entryDy=0;" edge="1" parent="1" source="FzxFN5KaWCAqjOAhKHtK-42" target="FzxFN5KaWCAqjOAhKHtK-31">
          <mxGeometry width="50" height="50" relative="1" as="geometry">
            <mxPoint x="450" y="510" as="sourcePoint" />
            <mxPoint x="500" y="460" as="targetPoint" />
          </mxGeometry>
        </mxCell>
        <mxCell id="dLvith_7uc--NiGQk4SE-8" value="" style="endArrow=none;html=1;rounded=0;entryX=0;entryY=0;entryDx=0;entryDy=0;" edge="1" parent="1" source="dLvith_7uc--NiGQk4SE-4" target="FzxFN5KaWCAqjOAhKHtK-31">
          <mxGeometry width="50" height="50" relative="1" as="geometry">
            <mxPoint x="500" y="470" as="sourcePoint" />
            <mxPoint x="550" y="420" as="targetPoint" />
          </mxGeometry>
        </mxCell>
        <mxCell id="dLvith_7uc--NiGQk4SE-9" value="" style="endArrow=none;html=1;rounded=0;exitX=0.75;exitY=0;exitDx=0;exitDy=0;entryX=0;entryY=1;entryDx=0;entryDy=0;" edge="1" parent="1" source="FzxFN5KaWCAqjOAhKHtK-31" target="dLvith_7uc--NiGQk4SE-5">
          <mxGeometry width="50" height="50" relative="1" as="geometry">
            <mxPoint x="450" y="510" as="sourcePoint" />
            <mxPoint x="500" y="460" as="targetPoint" />
          </mxGeometry>
        </mxCell>
        <mxCell id="dLvith_7uc--NiGQk4SE-10" value="" style="endArrow=none;html=1;rounded=0;exitX=1;exitY=0;exitDx=0;exitDy=0;entryX=0.07;entryY=0.667;entryDx=0;entryDy=0;entryPerimeter=0;" edge="1" parent="1" source="FzxFN5KaWCAqjOAhKHtK-31" target="dLvith_7uc--NiGQk4SE-3">
          <mxGeometry width="50" height="50" relative="1" as="geometry">
            <mxPoint x="450" y="510" as="sourcePoint" />
            <mxPoint x="500" y="460" as="targetPoint" />
          </mxGeometry>
        </mxCell>
        <mxCell id="dLvith_7uc--NiGQk4SE-11" value="" style="endArrow=none;html=1;rounded=0;exitX=0;exitY=0.5;exitDx=0;exitDy=0;entryX=1;entryY=0.25;entryDx=0;entryDy=0;" edge="1" parent="1" source="dLvith_7uc--NiGQk4SE-1" target="FzxFN5KaWCAqjOAhKHtK-31">
          <mxGeometry width="50" height="50" relative="1" as="geometry">
            <mxPoint x="450" y="510" as="sourcePoint" />
            <mxPoint x="500" y="460" as="targetPoint" />
          </mxGeometry>
        </mxCell>
        <mxCell id="dLvith_7uc--NiGQk4SE-12" value="" style="endArrow=none;html=1;rounded=0;exitX=0;exitY=0.5;exitDx=0;exitDy=0;entryX=1;entryY=0.5;entryDx=0;entryDy=0;" edge="1" parent="1" source="dLvith_7uc--NiGQk4SE-6" target="FzxFN5KaWCAqjOAhKHtK-31">
          <mxGeometry width="50" height="50" relative="1" as="geometry">
            <mxPoint x="720" y="495" as="sourcePoint" />
            <mxPoint x="500" y="460" as="targetPoint" />
          </mxGeometry>
        </mxCell>
        <mxCell id="dLvith_7uc--NiGQk4SE-14" value="" style="endArrow=none;html=1;rounded=0;exitX=0;exitY=0;exitDx=0;exitDy=0;entryX=0.917;entryY=1.033;entryDx=0;entryDy=0;entryPerimeter=0;" edge="1" parent="1" source="FzxFN5KaWCAqjOAhKHtK-35" target="FzxFN5KaWCAqjOAhKHtK-31">
          <mxGeometry width="50" height="50" relative="1" as="geometry">
            <mxPoint x="450" y="510" as="sourcePoint" />
            <mxPoint x="500" y="460" as="targetPoint" />
          </mxGeometry>
        </mxCell>
        <mxCell id="dLvith_7uc--NiGQk4SE-16" value="" style="endArrow=none;html=1;rounded=0;exitX=0;exitY=0;exitDx=0;exitDy=0;entryX=1;entryY=0.75;entryDx=0;entryDy=0;" edge="1" parent="1" source="FzxFN5KaWCAqjOAhKHtK-36" target="FzxFN5KaWCAqjOAhKHtK-31">
          <mxGeometry width="50" height="50" relative="1" as="geometry">
            <mxPoint x="450" y="510" as="sourcePoint" />
            <mxPoint x="500" y="460" as="targetPoint" />
          </mxGeometry>
        </mxCell>
        <mxCell id="dLvith_7uc--NiGQk4SE-17" value="" style="endArrow=none;html=1;rounded=0;exitX=0.5;exitY=0;exitDx=0;exitDy=0;entryX=0.75;entryY=1;entryDx=0;entryDy=0;" edge="1" parent="1" source="FzxFN5KaWCAqjOAhKHtK-37" target="FzxFN5KaWCAqjOAhKHtK-31">
          <mxGeometry width="50" height="50" relative="1" as="geometry">
            <mxPoint x="450" y="510" as="sourcePoint" />
            <mxPoint x="500" y="460" as="targetPoint" />
          </mxGeometry>
        </mxCell>
        <mxCell id="dLvith_7uc--NiGQk4SE-18" value="" style="endArrow=none;html=1;rounded=0;exitX=0.5;exitY=0;exitDx=0;exitDy=0;entryX=0.75;entryY=1;entryDx=0;entryDy=0;" edge="1" parent="1" source="FzxFN5KaWCAqjOAhKHtK-38" target="FzxFN5KaWCAqjOAhKHtK-31">
          <mxGeometry width="50" height="50" relative="1" as="geometry">
            <mxPoint x="450" y="510" as="sourcePoint" />
            <mxPoint x="500" y="460" as="targetPoint" />
          </mxGeometry>
        </mxCell>
        <mxCell id="dLvith_7uc--NiGQk4SE-19" value="" style="endArrow=none;html=1;rounded=0;exitX=0.5;exitY=0;exitDx=0;exitDy=0;entryX=0.5;entryY=1;entryDx=0;entryDy=0;" edge="1" parent="1" source="FzxFN5KaWCAqjOAhKHtK-39" target="FzxFN5KaWCAqjOAhKHtK-31">
          <mxGeometry width="50" height="50" relative="1" as="geometry">
            <mxPoint x="450" y="510" as="sourcePoint" />
            <mxPoint x="500" y="460" as="targetPoint" />
          </mxGeometry>
        </mxCell>
        <mxCell id="dLvith_7uc--NiGQk4SE-20" value="" style="endArrow=none;html=1;rounded=0;entryX=0.25;entryY=1;entryDx=0;entryDy=0;" edge="1" parent="1" source="FzxFN5KaWCAqjOAhKHtK-40" target="FzxFN5KaWCAqjOAhKHtK-31">
          <mxGeometry width="50" height="50" relative="1" as="geometry">
            <mxPoint x="460" y="540" as="sourcePoint" />
            <mxPoint x="500" y="460" as="targetPoint" />
          </mxGeometry>
        </mxCell>
        <mxCell id="dLvith_7uc--NiGQk4SE-21" value="" style="endArrow=none;html=1;rounded=0;exitX=1;exitY=0;exitDx=0;exitDy=0;entryX=0;entryY=0.75;entryDx=0;entryDy=0;" edge="1" parent="1" source="FzxFN5KaWCAqjOAhKHtK-41" target="FzxFN5KaWCAqjOAhKHtK-31">
          <mxGeometry width="50" height="50" relative="1" as="geometry">
            <mxPoint x="450" y="510" as="sourcePoint" />
            <mxPoint x="500" y="460" as="targetPoint" />
          </mxGeometry>
        </mxCell>
        <mxCell id="dLvith_7uc--NiGQk4SE-26" value="Proveedor" style="rounded=0;whiteSpace=wrap;html=1;" vertex="1" parent="1">
          <mxGeometry x="70" y="460" width="110" height="30" as="geometry" />
        </mxCell>
        <mxCell id="dLvith_7uc--NiGQk4SE-27" value="idProveedor" style="ellipse;whiteSpace=wrap;html=1;" vertex="1" parent="1">
          <mxGeometry y="390" width="90" height="50" as="geometry" />
        </mxCell>
        <mxCell id="dLvith_7uc--NiGQk4SE-28" value="Pedido" style="ellipse;whiteSpace=wrap;html=1;" vertex="1" parent="1">
          <mxGeometry x="20" y="540" width="120" height="50" as="geometry" />
        </mxCell>
        <mxCell id="dLvith_7uc--NiGQk4SE-29" value="" style="endArrow=none;html=1;rounded=0;exitX=0.25;exitY=1;exitDx=0;exitDy=0;entryX=0.408;entryY=-0.06;entryDx=0;entryDy=0;entryPerimeter=0;" edge="1" parent="1" source="dLvith_7uc--NiGQk4SE-26" target="dLvith_7uc--NiGQk4SE-28">
          <mxGeometry width="50" height="50" relative="1" as="geometry">
            <mxPoint x="220" y="460" as="sourcePoint" />
            <mxPoint x="80" y="550" as="targetPoint" />
          </mxGeometry>
        </mxCell>
        <mxCell id="dLvith_7uc--NiGQk4SE-30" value="" style="endArrow=none;html=1;rounded=0;exitX=0;exitY=0.25;exitDx=0;exitDy=0;entryX=0.5;entryY=1;entryDx=0;entryDy=0;" edge="1" parent="1" source="dLvith_7uc--NiGQk4SE-26" target="dLvith_7uc--NiGQk4SE-27">
          <mxGeometry width="50" height="50" relative="1" as="geometry">
            <mxPoint x="220" y="460" as="sourcePoint" />
            <mxPoint x="270" y="410" as="targetPoint" />
          </mxGeometry>
        </mxCell>
        <mxCell id="dLvith_7uc--NiGQk4SE-31" value="" style="endArrow=none;html=1;rounded=0;exitX=1;exitY=0.5;exitDx=0;exitDy=0;entryX=0;entryY=0.5;entryDx=0;entryDy=0;" edge="1" parent="1" source="dLvith_7uc--NiGQk4SE-26" target="dLvith_7uc--NiGQk4SE-32">
          <mxGeometry width="50" height="50" relative="1" as="geometry">
            <mxPoint x="220" y="460" as="sourcePoint" />
            <mxPoint x="210" y="480" as="targetPoint" />
          </mxGeometry>
        </mxCell>
        <mxCell id="dLvith_7uc--NiGQk4SE-36" value="1,N&lt;div&gt;&lt;br&gt;&lt;/div&gt;" style="edgeLabel;html=1;align=center;verticalAlign=middle;resizable=0;points=[];" vertex="1" connectable="0" parent="dLvith_7uc--NiGQk4SE-31">
          <mxGeometry x="-0.0693" y="3" relative="1" as="geometry">
            <mxPoint x="7" y="20" as="offset" />
          </mxGeometry>
        </mxCell>
        <mxCell id="dLvith_7uc--NiGQk4SE-32" value="Repone" style="rhombus;whiteSpace=wrap;html=1;" vertex="1" parent="1">
          <mxGeometry x="230" y="430" width="80" height="80" as="geometry" />
        </mxCell>
        <mxCell id="dLvith_7uc--NiGQk4SE-35" value="" style="endArrow=none;html=1;rounded=0;exitX=1;exitY=0.5;exitDx=0;exitDy=0;entryX=0;entryY=0.5;entryDx=0;entryDy=0;" edge="1" parent="1" source="dLvith_7uc--NiGQk4SE-32" target="FzxFN5KaWCAqjOAhKHtK-31">
          <mxGeometry width="50" height="50" relative="1" as="geometry">
            <mxPoint x="390" y="470" as="sourcePoint" />
            <mxPoint x="440" y="420" as="targetPoint" />
          </mxGeometry>
        </mxCell>
        <mxCell id="dLvith_7uc--NiGQk4SE-37" value="1,N" style="edgeLabel;html=1;align=center;verticalAlign=middle;resizable=0;points=[];" vertex="1" connectable="0" parent="dLvith_7uc--NiGQk4SE-35">
          <mxGeometry x="-0.1796" relative="1" as="geometry">
            <mxPoint x="-5" y="9" as="offset" />
          </mxGeometry>
        </mxCell>
      </root>
    </mxGraphModel>
  </diagram>
</mxfile>
